<?xml version="1.0" encoding="UTF-8"?>
<!DOCTYPE svg PUBLIC "-//W3C//DTD SVG 1.1//EN" "http://www.w3.org/Graphics/SVG/1.1/DTD/svg11.dtd">
<!-- Creator: CorelDRAW -->
<svg xmlns="http://www.w3.org/2000/svg" xml:space="preserve" width="2.66666in" height="2.66666in" version="1.1" style="shape-rendering:geometricPrecision; text-rendering:geometricPrecision; image-rendering:optimizeQuality; fill-rule:evenodd; clip-rule:evenodd"
viewBox="0 0 2667 2667"
 xmlns:xlink="http://www.w3.org/1999/xlink">
 <defs>
  <style type="text/css">
   <![CDATA[
    .fil2 {fill:#1AA1FF}
    .fil4 {fill:#333333}
    .fil0 {fill:#FFA780}
    .fil1 {fill:#FFE4AF}
    .fil3 {fill:white}
   ]]>
  </style>
 </defs>
 <g id="Layer_x0020_1">
  <metadata id="CorelCorpID_0Corel-Layer"/>
  <path class="fil0" d="M1860 2187l-1202 0c-15,0 -27,-12 -27,-27l0 -1529c0,-15 12,-27 27,-27l149 0c14,0 26,12 26,27l0 1378 1027 0c15,0 27,12 27,27l0 124c0,15 -12,27 -27,27z"/>
  <path class="fil1" d="M2009 2063l-1202 0c-15,0 -27,-12 -27,-27l0 -1529c0,-15 12,-27 27,-27l897 0c7,0 14,3 19,8l303 297c10,7 10,9 10,51l0 1200c0,15 -12,27 -27,27z"/>
  <path class="fil0" d="M2009 831l-232 0c-55,0 -99,-44 -99,-98l0 -226c0,-11 6,-21 16,-25 10,-4 21,-2 29,6l305 298c7,7 10,19 6,29 -4,10 -14,16 -25,16z"/>
  <path class="fil2" d="M1825 1370l-180 0c-38,0 -70,-32 -70,-71l0 -179c0,-39 32,-71 70,-71l180 0c39,0 70,32 70,71l0 179c0,39 -31,71 -70,71z"/>
  <path class="fil3" d="M1712 1278l0 0c-8,0 -14,-3 -19,-8l-37 -36c-11,-11 -11,-28 0,-38 10,-10 27,-10 38,0l18 18 65 -65c10,-11 27,-11 38,0 10,10 10,27 0,37l-85 84c-5,5 -11,8 -18,8z"/>
  <path class="fil4" d="M1855 983l-908 0c-15,0 -27,-12 -27,-26 0,-15 12,-27 27,-27l908 0c15,0 27,12 27,27 0,14 -12,26 -27,26z"/>
  <path class="fil4" d="M1454 1103l-507 0c-15,0 -27,-12 -27,-27 0,-15 12,-27 27,-27l507 0c14,0 26,12 26,27 0,15 -12,27 -26,27z"/>
  <path class="fil4" d="M1396 1236l-449 0c-15,0 -27,-12 -27,-26 0,-15 12,-27 27,-27l449 0c15,0 27,12 27,27 0,14 -12,26 -27,26z"/>
  <path class="fil4" d="M1551 716l-604 0c-15,0 -27,-12 -27,-27 0,-14 12,-26 27,-26l604 0c15,0 26,12 26,26 0,15 -11,27 -26,27z"/>
  <path class="fil4" d="M1551 840l-604 0c-15,0 -27,-12 -27,-27 0,-14 12,-26 27,-26l604 0c15,0 26,12 26,26 0,15 -11,27 -26,27z"/>
  <path class="fil2" d="M1172 1761l-180 0c-39,0 -70,-32 -70,-70l0 -180c0,-39 31,-70 70,-70l180 0c39,0 70,31 70,70l0 180c0,38 -31,70 -70,70z"/>
  <path class="fil3" d="M1058 1670c-7,0 -13,-3 -19,-8l-36 -37c-11,-10 -11,-27 0,-38 10,-10 27,-10 37,0l18 18 66 -65c10,-11 27,-11 37,0 11,10 11,27 0,38l-84 84c-5,5 -12,8 -19,8z"/>
  <path class="fil4" d="M1396 1370l-449 0c-15,0 -27,-12 -27,-27 0,-15 12,-27 27,-27l449 0c15,0 27,12 27,27 0,15 -12,27 -27,27z"/>
  <path class="fil4" d="M1835 1494l-509 0c-15,0 -27,-12 -27,-27 0,-14 12,-26 27,-26l509 0c15,0 27,12 27,26 0,15 -12,27 -27,27z"/>
  <path class="fil4" d="M1835 1761l-509 0c-15,0 -27,-12 -27,-27 0,-14 12,-26 27,-26l509 0c15,0 27,12 27,26 0,15 -12,27 -27,27z"/>
  <path class="fil4" d="M1855 1880l-908 0c-15,0 -27,-12 -27,-27 0,-14 12,-26 27,-26l908 0c15,0 27,12 27,26 0,15 -12,27 -27,27z"/>
  <path class="fil4" d="M1835 1627l-509 0c-15,0 -27,-11 -27,-26 0,-15 12,-27 27,-27l509 0c15,0 27,12 27,27 0,15 -12,26 -27,26z"/>
  <path id="_341084808" class="fil0" d="M1333 0c737,0 1334,597 1334,1333 0,737 -597,1334 -1334,1334 -736,0 -1333,-597 -1333,-1334 0,-736 597,-1333 1333,-1333zm0 113c674,0 1221,546 1221,1220 0,674 -547,1221 -1221,1221 -674,0 -1220,-547 -1220,-1221 0,-674 546,-1220 1220,-1220z"/>
  <path id="_341084880" class="fil2" d="M1333 75c695,0 1258,564 1258,1258 0,695 -563,1258 -1258,1258 -694,0 -1258,-563 -1258,-1258 0,-694 564,-1258 1258,-1258zm0 38c674,0 1221,546 1221,1220 0,674 -547,1221 -1221,1221 -674,0 -1220,-547 -1220,-1221 0,-674 546,-1220 1220,-1220z"/>
 </g>
</svg>
